HIERARCHY
ROOT Hips
{
	OFFSET 0.000000 83.214638 0.000000
	CHANNELS 6 Xposition Yposition Zposition Xrotation Yrotation Zrotation
	JOINT Pelvis
	{
		OFFSET 0.000000 0.000000 0.000000
		CHANNELS 3 Xrotation Yrotation Zrotation
		JOINT LeftUpLeg
		{
			OFFSET 8.479700 -4.795502 -0.379100
			CHANNELS 3 Xrotation Yrotation Zrotation
			JOINT LeftLeg
			{
				OFFSET 0.024144 -32.555107 0.112900
				CHANNELS 3 Xrotation Yrotation Zrotation
				JOINT LeftFoot
				{
					OFFSET -0.024144 -32.638630 -3.012600
					CHANNELS 3 Xrotation Yrotation Zrotation
					JOINT LeftToeBase
					{
						OFFSET 0.970200 -13.225400 11.864200
						CHANNELS 3 Xrotation Yrotation Zrotation
						End Site
						{
							OFFSET 0.000000 12.319262 0.000000
						}
					}
					JOINT LFootTongue
					{
						OFFSET 1.142400 -1.059800 6.665200
						CHANNELS 3 Xrotation Yrotation Zrotation
						End Site
						{
							OFFSET 0.000000 12.319262 0.000000
						}
					}
				}
				JOINT LeftPantLeg
				{
					OFFSET 0.918482 -16.533964 -2.284700
					CHANNELS 3 Xrotation Yrotation Zrotation
					End Site
					{
						OFFSET 0.350399 24.744368 0.000000
					}
				}
			}
		}
		JOINT RightUpLeg
		{
			OFFSET -8.479700 -4.795502 -0.379100
			CHANNELS 3 Xrotation Yrotation Zrotation
			JOINT RightLeg
			{
				OFFSET -0.023144 -32.555092 0.112900
				CHANNELS 3 Xrotation Yrotation Zrotation
				JOINT RightFoot
				{
					OFFSET 0.023144 -32.638641 -3.012700
					CHANNELS 3 Xrotation Yrotation Zrotation
					JOINT RightToeBase
					{
						OFFSET -0.970200 -13.225400 11.864200
						CHANNELS 3 Xrotation Yrotation Zrotation
						End Site
						{
							OFFSET 0.000000 12.319244 0.000000
						}
					}
					JOINT RFootTongue
					{
						OFFSET -1.142200 -1.059800 6.665200
						CHANNELS 3 Xrotation Yrotation Zrotation
						End Site
						{
							OFFSET 0.000000 12.319243 0.000000
						}
					}
				}
				JOINT RightPantLeg
				{
					OFFSET -0.919482 -16.533978 -2.284800
					CHANNELS 3 Xrotation Yrotation Zrotation
					End Site
					{
						OFFSET -0.350400 24.744419 0.000000
					}
				}
			}
		}
	}
	JOINT Spine
	{
		OFFSET 0.000000 7.722000 1.166200
		CHANNELS 3 Xrotation Yrotation Zrotation
		JOINT Spine1
		{
			OFFSET 0.000000 12.024101 0.248800
			CHANNELS 3 Xrotation Yrotation Zrotation
			JOINT Spine2
			{
				OFFSET 0.000000 11.502998 -0.491200
				CHANNELS 3 Xrotation Yrotation Zrotation
				JOINT Neck
				{
					OFFSET 0.000000 18.430702 -3.123100
					CHANNELS 3 Xrotation Yrotation Zrotation
					JOINT Head
					{
						OFFSET 0.000000 9.051102 1.034000
						CHANNELS 3 Xrotation Yrotation Zrotation
						JOINT HairB
						{
							OFFSET 0.208400 24.786102 24.822300
							CHANNELS 3 Xrotation Yrotation Zrotation
							End Site
							{
								OFFSET 0.000000 32.263779 0.000000
							}
						}
						JOINT HairA
						{
							OFFSET -7.081100 24.428299 23.196600
							CHANNELS 3 Xrotation Yrotation Zrotation
							End Site
							{
								OFFSET 0.000000 32.263779 0.000000
							}
						}
						JOINT Hat
						{
							OFFSET 16.728800 15.048294 -15.439601
							CHANNELS 3 Xrotation Yrotation Zrotation
							End Site
							{
								OFFSET 0.000000 32.263779 0.000000
							}
						}
					}
				}
				JOINT LeftShoulder
				{
					OFFSET 6.197800 13.665199 -4.064700
					CHANNELS 3 Xrotation Yrotation Zrotation
					JOINT LeftArm
					{
						OFFSET 7.778100 -0.187103 -1.709300
						CHANNELS 3 Xrotation Yrotation Zrotation
						JOINT LeftForeArm
						{
							OFFSET 22.049376 0.000000 0.000000
							CHANNELS 3 Xrotation Yrotation Zrotation
							JOINT LeftHand
							{
								OFFSET 23.009392 0.000000 0.000000
								CHANNELS 3 Xrotation Yrotation Zrotation
								JOINT LeftHandThumb1
								{
									OFFSET 3.507191 -2.063065 3.133727
									CHANNELS 3 Xrotation Yrotation Zrotation
									JOINT LeftHandThumb2
									{
										OFFSET 3.101337 -1.790558 1.790558
										CHANNELS 3 Xrotation Yrotation Zrotation
										JOINT LeftHandThumb3
										{
											OFFSET 3.058640 -1.765907 1.765906
											CHANNELS 3 Xrotation Yrotation Zrotation
											End Site
											{
												OFFSET -0.415260 3.926476 -0.049563
											}
										}
									}
								}
								JOINT LeftHandIndex1
								{
									OFFSET 11.334419 -0.901459 3.706815
									CHANNELS 3 Xrotation Yrotation Zrotation
									JOINT LeftHandIndex2
									{
										OFFSET 3.283112 0.000000 0.000000
										CHANNELS 3 Xrotation Yrotation Zrotation
										JOINT LeftHandIndex3
										{
											OFFSET 3.323853 0.000000 0.000000
											CHANNELS 3 Xrotation Yrotation Zrotation
											End Site
											{
												OFFSET -1.135597 3.097809 0.402452
											}
										}
									}
								}
								JOINT LeftHandMiddle1
								{
									OFFSET 11.335861 0.000000 0.000000
									CHANNELS 3 Xrotation Yrotation Zrotation
									JOINT LeftHandMiddle2
									{
										OFFSET 3.410492 0.000000 0.000000
										CHANNELS 3 Xrotation Yrotation Zrotation
										JOINT LeftHandMiddle3
										{
											OFFSET 3.312172 0.000000 0.000000
											CHANNELS 3 Xrotation Yrotation Zrotation
											End Site
											{
												OFFSET -1.150200 3.080154 0.400270
											}
										}
									}
								}
								JOINT LeftHandRing1
								{
									OFFSET 11.514786 -0.013176 -3.003090
									CHANNELS 3 Xrotation Yrotation Zrotation
									JOINT LeftHandRing2
									{
										OFFSET 3.053307 0.000000 0.000000
										CHANNELS 3 Xrotation Yrotation Zrotation
										JOINT LeftHandRing3
										{
											OFFSET 3.295807 0.000000 0.000000
											CHANNELS 3 Xrotation Yrotation Zrotation
											End Site
											{
												OFFSET -1.281006 3.013344 0.375733
											}
										}
									}
								}
								JOINT LeftHandPinky1
								{
									OFFSET 10.518692 -0.960396 -5.730441
									CHANNELS 3 Xrotation Yrotation Zrotation
									JOINT LeftHandPinky2
									{
										OFFSET 2.861649 0.000000 0.000000
										CHANNELS 3 Xrotation Yrotation Zrotation
										JOINT LeftHandPinky3
										{
											OFFSET 2.863380 0.000000 0.000000
											CHANNELS 3 Xrotation Yrotation Zrotation
											End Site
											{
												OFFSET -0.843597 2.711159 0.369971
											}
										}
									}
								}
							}
							JOINT LSleeve
							{
								OFFSET 6.676277 -0.344902 -1.011730
								CHANNELS 3 Xrotation Yrotation Zrotation
								End Site
								{
									OFFSET 0.000000 14.885353 0.000000
								}
							}
						}
					}
				}
				JOINT RightShoulder
				{
					OFFSET -6.197800 13.665199 -4.064700
					CHANNELS 3 Xrotation Yrotation Zrotation
					JOINT RightArm
					{
						OFFSET -7.778100 -0.187103 -1.709300
						CHANNELS 3 Xrotation Yrotation Zrotation
						JOINT RightForeArm
						{
							OFFSET -22.049376 0.000000 0.000000
							CHANNELS 3 Xrotation Yrotation Zrotation
							JOINT RightHand
							{
								OFFSET -23.009392 0.000000 0.000000
								CHANNELS 3 Xrotation Yrotation Zrotation
								JOINT RightHandThumb1
								{
									OFFSET -3.507191 -2.063065 3.133727
									CHANNELS 3 Xrotation Yrotation Zrotation
									JOINT RightHandThumb2
									{
										OFFSET -3.101337 -1.790558 1.790558
										CHANNELS 3 Xrotation Yrotation Zrotation
										JOINT RightHandThumb3
										{
											OFFSET -3.058640 -1.765907 1.765906
											CHANNELS 3 Xrotation Yrotation Zrotation
											End Site
											{
												OFFSET 0.415260 3.926476 -0.049563
											}
										}
									}
								}
								JOINT RightHandIndex1
								{
									OFFSET -11.334419 -0.901459 3.706815
									CHANNELS 3 Xrotation Yrotation Zrotation
									JOINT RightHandIndex2
									{
										OFFSET -3.283112 0.000000 0.000000
										CHANNELS 3 Xrotation Yrotation Zrotation
										JOINT RightHandIndex3
										{
											OFFSET -3.323853 0.000000 0.000000
											CHANNELS 3 Xrotation Yrotation Zrotation
											End Site
											{
												OFFSET 1.135597 3.097809 0.402452
											}
										}
									}
								}
								JOINT RightHandMiddle1
								{
									OFFSET -11.335861 0.000000 0.000000
									CHANNELS 3 Xrotation Yrotation Zrotation
									JOINT RightHandMiddle2
									{
										OFFSET -3.410492 0.000000 0.000000
										CHANNELS 3 Xrotation Yrotation Zrotation
										JOINT RightHandMiddle3
										{
											OFFSET -3.312172 0.000000 0.000000
											CHANNELS 3 Xrotation Yrotation Zrotation
											End Site
											{
												OFFSET 1.150200 3.080154 0.400270
											}
										}
									}
								}
								JOINT RightHandRing1
								{
									OFFSET -11.514786 -0.013176 -3.003090
									CHANNELS 3 Xrotation Yrotation Zrotation
									JOINT RightHandRing2
									{
										OFFSET -3.053307 0.000000 0.000000
										CHANNELS 3 Xrotation Yrotation Zrotation
										JOINT RightHandRing3
										{
											OFFSET -3.295807 0.000000 0.000000
											CHANNELS 3 Xrotation Yrotation Zrotation
											End Site
											{
												OFFSET 1.281006 3.013344 0.375733
											}
										}
									}
								}
								JOINT RightHandPinky1
								{
									OFFSET -10.518692 -0.960396 -5.730441
									CHANNELS 3 Xrotation Yrotation Zrotation
									JOINT RightHandPinky2
									{
										OFFSET -2.861649 0.000000 0.000000
										CHANNELS 3 Xrotation Yrotation Zrotation
										JOINT RightHandPinky3
										{
											OFFSET -2.863380 0.000000 0.000000
											CHANNELS 3 Xrotation Yrotation Zrotation
											End Site
											{
												OFFSET 0.843597 2.711159 0.369971
											}
										}
									}
								}
							}
							JOINT RSleeve
							{
								OFFSET -6.676277 -0.344902 -1.011730
								CHANNELS 3 Xrotation Yrotation Zrotation
								End Site
								{
									OFFSET 0.000000 14.885353 0.000000
								}
							}
						}
					}
				}
				JOINT Backpack
				{
					OFFSET 0.000000 -2.471497 36.677502
					CHANNELS 3 Xrotation Yrotation Zrotation
					End Site
					{
						OFFSET 0.000000 20.427315 0.000000
					}
				}
				JOINT Hood
				{
					OFFSET 0.000000 18.754097 -10.431000
					CHANNELS 3 Xrotation Yrotation Zrotation
					JOINT Hood1
					{
						OFFSET 0.000000 -5.011002 -7.685901
						CHANNELS 3 Xrotation Yrotation Zrotation
						End Site
						{
							OFFSET 0.000000 9.175140 0.000000
						}
					}
				}
				JOINT LHoodieString
				{
					OFFSET 5.250500 16.397697 3.089900
					CHANNELS 3 Xrotation Yrotation Zrotation
					JOINT LHoodieString1
					{
						OFFSET 0.257700 -6.364304 3.694600
						CHANNELS 3 Xrotation Yrotation Zrotation
						JOINT LHoodieString2
						{
							OFFSET 0.000000 -9.643799 2.679100
							CHANNELS 3 Xrotation Yrotation Zrotation
							End Site
							{
								OFFSET 0.000000 10.009018 0.000000
							}
						}
					}
				}
				JOINT RHoodieString
				{
					OFFSET -5.250500 16.397697 3.089900
					CHANNELS 3 Xrotation Yrotation Zrotation
					JOINT RHoodieString1
					{
						OFFSET -0.257700 -6.364304 3.694600
						CHANNELS 3 Xrotation Yrotation Zrotation
						JOINT RHoodieString2
						{
							OFFSET 0.000000 -9.643799 2.679100
							CHANNELS 3 Xrotation Yrotation Zrotation
							End Site
							{
								OFFSET 0.000000 10.009018 0.000000
							}
						}
					}
				}
			}
			JOINT LBackpack_Strap
			{
				OFFSET 15.223200 -7.719803 -6.610900
				CHANNELS 3 Xrotation Yrotation Zrotation
				End Site
				{
					OFFSET 0.000000 16.040596 0.000000
				}
			}
			JOINT RBackpack_Strap
			{
				OFFSET -15.223000 -7.719803 -6.610900
				CHANNELS 3 Xrotation Yrotation Zrotation
				End Site
				{
					OFFSET 0.000000 16.040596 0.000000
				}
			}
		}
	}
	JOINT BoyFacialAnim_Joint
	{
		OFFSET 1.000000 -82.208099 -1.550900
		CHANNELS 3 Xrotation Yrotation Zrotation
		End Site
		{
			OFFSET 0.000000 30.012791 0.000000
		}
	}
}
MOTION
Frames: 5
Frame Time: 0.033333
2.416658 81.409302 48.583878 -2.770129 -19.875490 -2.843223 -0.000000 0.000001 0.000000 -9.271278 21.325210 3.114497 22.981146 9.258633 1.260877 -12.922865 1.948323 -0.278531 -0.000000 -0.000000 0.000000 -0.000000 -0.000000 0.000000 0.000000 -0.000001 0.000000 -13.685108 -8.343454 -10.535159 12.252878 -6.270253 1.170854 1.366692 -0.224144 8.888367 -0.000001 0.000002 -0.000000 -0.000001 0.000002 -0.000000 -0.000000 0.000001 0.000001 12.680165 0.151727 -2.615246 -4.338087 -5.913250 2.374745 -5.674450 1.695559 0.502353 6.533793 5.189678 1.621713 -4.825428 6.305076 -1.838264 0.000000 -0.000000 0.000000 0.000000 -0.000000 0.000000 0.000000 -0.000000 0.000000 2.255320 -9.155463 -3.833794 -2.658827 -10.586908 -72.947657 6.326056 -19.479327 -0.328237 -9.935223 -1.833200 14.361069 -4.878676 5.674218 12.732405 5.524419 9.596629 -0.068779 0.000000 -0.000001 0.000003 2.007306 -2.107137 -21.614369 -0.015097 0.134696 -18.299540 -0.000001 0.000002 -0.000002 -0.392869 0.250925 -26.690861 0.064295 0.378272 -23.867095 -0.000004 -0.000002 -0.000002 -0.834887 3.296283 -27.812809 -0.053039 0.154121 -28.024258 0.000001 0.000001 -0.000002 -2.615821 3.894550 -37.180097 0.008269 0.100697 -30.125878 -0.000003 0.000000 -0.000002 0.000002 0.000001 -0.000001 2.210966 7.080670 6.589686 14.809372 16.601381 67.575966 5.742369 27.362458 -4.420540 -21.421661 -3.892903 -12.715930 -0.396042 -13.704032 -5.647217 6.360666 -11.423892 -0.087450 -0.000000 0.000001 -0.000002 2.019971 -1.590579 15.399225 0.017457 -0.203294 20.558550 -0.000000 -0.000002 0.000005 -1.006891 -2.747897 19.619613 0.062752 -0.425828 26.294239 -0.000000 0.000000 -0.000000 -2.602636 -5.111765 19.631941 -0.003993 -0.291846 31.051959 0.000001 -0.000001 0.000000 -4.466862 -5.126612 29.148775 0.048921 -0.174379 32.990695 -0.000001 -0.000001 0.000005 0.000000 -0.000002 -0.000001 0.000000 -0.000000 -0.000000 0.000000 -0.000000 -0.000000 0.000000 -0.000000 -0.000000 0.000000 -0.000000 -0.000000 0.000000 -0.000000 -0.000000 -0.000000 -0.000000 -0.000000 0.000000 -0.000000 -0.000000 0.000000 -0.000000 -0.000000 -0.000000 -0.000000 -0.000000 -0.000000 0.000001 -0.000000 -0.000000 0.000001 -0.000000 -0.000000 0.000001 0.000000 
2.311926 81.415329 48.911297 -3.210895 -19.958822 -2.790726 0.000000 0.000000 -0.000000 -8.208099 21.375613 2.786119 22.585511 9.305503 1.262621 -13.037681 2.005407 -0.409857 -0.000000 0.000000 -0.000000 -0.000000 0.000000 0.000000 0.000000 -0.000001 0.000000 -11.815599 -8.156749 -9.982034 8.249502 -7.849559 0.408228 7.148563 1.430626 8.094975 -0.000000 -0.000001 -0.000000 -0.000000 -0.000001 -0.000000 -0.000001 0.000001 0.000000 12.519144 0.161089 -2.653567 -4.282417 -6.079774 2.327334 -5.657875 1.783643 0.383476 7.103204 5.294587 1.643299 -4.636229 6.264297 -1.303397 -0.000000 0.000000 0.000000 -0.000000 0.000000 0.000000 -0.000000 0.000000 0.000000 2.262835 -9.234208 -4.185989 -2.470396 -8.927412 -73.077198 4.923640 -18.938610 -0.899557 -7.319432 -1.408735 14.199490 -5.016370 5.473240 12.541391 5.915441 10.297904 -0.146203 -0.000001 0.000002 -0.000000 2.316961 -2.160505 -23.029141 -0.012112 0.141067 -18.701609 -0.000002 -0.000002 -0.000000 -0.380191 0.161123 -27.754460 0.068593 0.390962 -24.495095 0.000001 -0.000002 -0.000000 -1.011078 3.228481 -27.958896 -0.052691 0.163836 -29.020890 0.000001 -0.000001 -0.000006 -2.863623 3.999206 -37.566225 0.010525 0.107936 -30.785350 -0.000001 0.000001 -0.000000 0.000000 0.000001 -0.000001 2.240715 7.149606 6.541126 15.128382 16.690459 68.373773 5.660349 27.016730 -4.307137 -21.414482 -3.563047 -12.704760 -0.515830 -13.506230 -5.570686 6.312295 -11.421153 -0.134847 -0.000000 0.000001 0.000002 2.017091 -1.519303 14.597212 0.015481 -0.202601 19.568372 -0.000000 0.000001 0.000002 -0.945791 -2.652951 18.779568 0.054996 -0.410525 25.210249 0.000001 0.000001 -0.000000 -2.483804 -4.948371 18.889981 -0.003830 -0.292548 29.921993 -0.000001 0.000000 0.000000 -4.338068 -4.925573 28.294798 0.044469 -0.175604 31.880731 -0.000002 -0.000001 0.000003 0.000001 0.000000 -0.000001 -0.000000 -0.000002 0.000000 -0.000000 -0.000002 0.000000 -0.000000 -0.000002 0.000000 -0.000000 -0.000002 0.000000 -0.000000 -0.000002 0.000000 0.000000 -0.000000 0.000000 -0.000000 -0.000002 0.000000 -0.000000 -0.000002 0.000000 0.000000 -0.000000 0.000000 0.000000 0.000000 -0.000000 0.000000 0.000000 -0.000000 0.000000 0.000000 -0.000000 
2.198262 81.414703 49.237061 -3.696813 -20.013190 -2.779667 -0.000000 0.000001 0.000000 -7.143230 21.408338 2.504851 22.246667 9.338725 1.263748 -13.176741 2.055655 -0.551555 -0.000000 0.000000 0.000000 -0.000000 0.000000 0.000000 -0.000002 -0.000000 0.000000 -10.662601 -8.182740 -10.002809 7.036071 -8.070180 0.293926 8.285859 1.776440 7.802232 -0.000000 -0.000003 -0.000000 -0.000000 -0.000003 -0.000000 0.000001 -0.000001 -0.000001 12.310202 0.263829 -2.589993 -4.165429 -6.143971 2.177456 -5.573212 1.967693 0.152632 7.500065 5.219167 1.938755 -4.429284 6.141830 -0.843325 -0.000000 0.000000 -0.000000 -0.000000 0.000000 -0.000000 -0.000000 0.000000 -0.000000 2.309060 -9.387888 -4.228382 -1.851274 -7.748657 -73.250951 4.045395 -18.630726 -1.184426 -6.913621 -1.070904 13.495134 -5.094742 5.375430 12.405641 6.209561 10.805663 -0.219784 -0.000000 0.000002 0.000001 2.555572 -2.127491 -23.787165 -0.009404 0.147477 -18.959219 0.000003 0.000001 -0.000000 -0.371610 0.178747 -28.267680 0.072104 0.403769 -24.936770 -0.000000 -0.000000 -0.000003 -1.152575 3.287094 -27.785061 -0.052264 0.173470 -29.730611 -0.000003 -0.000002 -0.000001 -3.051551 4.184269 -37.592606 0.012348 0.116304 -31.246114 -0.000000 0.000002 0.000004 -0.000001 0.000000 -0.000001 2.259333 7.054632 6.712585 15.162656 16.384543 69.142326 6.014140 26.542800 -4.219792 -21.094836 -3.419281 -13.214764 -0.514524 -13.409666 -5.581251 6.333791 -11.427001 -0.103710 0.000002 -0.000002 0.000001 2.046005 -1.561811 14.032227 0.014413 -0.202729 19.117122 -0.000000 0.000000 0.000002 -0.931865 -2.730827 18.238478 0.053309 -0.412336 24.815360 0.000001 0.000002 -0.000002 -2.470393 -5.086531 18.291014 -0.003826 -0.294328 29.554942 -0.000002 0.000000 -0.000001 -4.307801 -5.091242 27.765844 0.042240 -0.177307 31.501632 -0.000001 0.000000 -0.000003 -0.000000 -0.000001 0.000001 0.000000 -0.000002 0.000000 0.000000 -0.000002 0.000000 0.000000 -0.000002 0.000000 0.000000 -0.000002 0.000000 0.000000 -0.000002 0.000000 0.000000 -0.000002 -0.000000 0.000000 -0.000002 0.000000 0.000000 -0.000002 0.000000 0.000000 -0.000002 -0.000000 0.000000 -0.000001 0.000000 0.000000 -0.000001 0.000000 -0.000000 0.000001 0.000000 
2.077293 81.412254 49.576729 -4.167474 -20.012543 -2.785487 0.000000 0.000000 0.000000 -6.103550 21.428697 2.258299 21.926200 9.339946 1.262854 -13.329446 2.085156 -0.694859 -0.000000 0.000000 -0.000000 -0.000000 0.000000 -0.000000 -0.000001 0.000000 0.000000 -9.770281 -8.271728 -10.160713 6.713012 -7.981469 0.287897 8.170943 1.784110 7.889072 0.000000 0.000000 -0.000000 0.000000 0.000000 -0.000000 -0.000000 -0.000001 0.000000 12.054324 0.414104 -2.447428 -4.017125 -6.159029 1.972492 -5.451751 2.197462 -0.138162 7.791790 5.033913 2.377046 -4.204261 5.965094 -0.436528 -0.000000 -0.000000 -0.000000 -0.000000 -0.000000 -0.000000 -0.000000 -0.000000 -0.000000 2.370238 -9.569602 -4.162608 -1.110430 -6.711003 -73.499509 3.492020 -18.424613 -1.337027 -7.372522 -0.719431 12.516278 -5.129449 5.357445 12.304059 6.449401 11.198530 -0.296019 -0.000003 0.000001 -0.000001 2.761064 -2.006651 -24.049772 -0.006873 0.153850 -19.117927 -0.000001 -0.000001 -0.000004 -0.363303 0.292798 -28.352218 0.075111 0.416662 -25.262223 -0.000003 0.000002 -0.000001 -1.280740 3.461097 -27.309946 -0.051861 0.183706 -30.264613 -0.000001 -0.000000 -0.000004 -3.210215 4.456546 -37.304420 0.013944 0.124628 -31.581825 -0.000001 -0.000002 -0.000002 -0.000004 -0.000001 0.000001 2.281733 6.900425 6.940861 14.669336 15.366478 69.942073 5.729550 25.908760 -3.569955 -20.261362 -3.425635 -13.983792 -0.510067 -13.187847 -5.603171 6.388479 -11.437716 -0.033614 0.000001 0.000001 0.000002 2.071244 -1.663101 13.746890 0.014091 -0.203642 19.092310 -0.000000 0.000000 0.000002 -0.972811 -2.881064 18.006303 0.055409 -0.424378 24.920341 0.000002 0.000001 -0.000002 -2.563372 -5.348865 17.923729 -0.004085 -0.296170 29.723354 0.000001 0.000002 0.000002 -4.393606 -5.409789 27.554863 0.041734 -0.179959 31.642409 -0.000000 0.000000 0.000002 0.000001 0.000000 0.000000 -0.000000 0.000002 -0.000000 -0.000000 0.000002 -0.000000 -0.000000 0.000002 -0.000000 -0.000000 0.000002 -0.000000 -0.000000 0.000002 -0.000000 -0.000000 0.000002 0.000000 -0.000000 0.000002 -0.000000 -0.000000 0.000002 -0.000000 -0.000000 0.000002 0.000000 0.000000 -0.000000 0.000000 0.000000 -0.000000 0.000000 0.000000 0.000000 0.000000 
1.948501 81.406754 49.953037 -4.545107 -19.928059 -2.774609 -0.000000 0.000000 -0.000000 -5.140627 21.442151 2.037610 21.613929 9.287832 1.258639 -13.504192 2.079171 -0.835300 0.000000 0.000000 -0.000000 0.000000 0.000000 -0.000000 -0.000000 -0.000000 -0.000000 -9.590789 -8.247944 -10.422722 7.765287 -7.902150 0.281064 7.296538 1.720833 8.122002 0.000000 -0.000002 -0.000000 0.000000 -0.000002 -0.000000 0.000000 0.000001 0.000001 11.746623 0.566303 -2.244288 -3.867917 -6.178189 1.756819 -5.326137 2.422343 -0.439903 8.039411 4.806308 2.831460 -3.971792 5.762288 -0.071677 0.000000 -0.000000 -0.000000 0.000000 -0.000000 -0.000000 0.000000 -0.000000 -0.000000 2.436754 -9.737323 -4.075383 -0.182602 -5.595397 -73.803233 3.319097 -18.364198 -1.361901 -8.044551 -0.413342 11.777791 -5.128846 5.404292 12.229268 6.648030 11.502993 -0.374793 -0.000002 -0.000000 0.000001 2.941222 -1.808102 -23.912557 -0.004451 0.160301 -19.197859 -0.000001 0.000001 0.000002 -0.356548 0.487205 -28.088280 0.077760 0.429683 -25.497200 0.000002 -0.000000 0.000002 -1.405016 3.730151 -26.581602 -0.051424 0.193738 -30.662813 -0.000001 -0.000001 -0.000002 -3.352475 4.801721 -36.754522 0.015337 0.133095 -31.820185 0.000000 -0.000003 -0.000004 -0.000003 -0.000001 0.000001 2.306864 6.751090 7.169098 13.889033 13.850311 70.753643 4.965562 25.163556 -2.548694 -19.035153 -3.444750 -14.766365 -0.505876 -12.966106 -5.625449 6.443871 -11.447835 0.036107 0.000001 0.000001 -0.000000 2.095566 -1.764603 13.461640 0.013918 -0.204992 19.067682 0.000001 -0.000002 0.000003 -1.015057 -3.031014 17.773879 0.057483 -0.436764 25.025379 0.000000 0.000001 0.000002 -2.659804 -5.610159 17.555244 -0.004619 -0.298131 29.891712 -0.000001 0.000000 0.000006 -4.481670 -5.727685 27.342313 0.041438 -0.182488 31.783244 0.000000 -0.000000 -0.000002 0.000000 -0.000003 -0.000001 -0.000000 0.000000 -0.000000 -0.000000 0.000000 -0.000000 -0.000000 0.000000 -0.000000 -0.000000 0.000000 -0.000000 -0.000000 0.000000 -0.000000 -0.000000 0.000000 -0.000000 -0.000000 0.000000 -0.000000 -0.000000 0.000000 -0.000000 -0.000000 0.000000 -0.000000 0.000000 -0.000001 -0.000000 0.000000 -0.000001 -0.000000 -0.000000 0.000000 -0.000000 
